<?xml version="1.0" encoding="UTF-8" standalone="no"?>
<!-- Created with Inkscape (http://www.inkscape.org/) -->

<svg
   xmlns:dc="http://purl.org/dc/elements/1.1/"
   xmlns:cc="http://creativecommons.org/ns#"
   xmlns:rdf="http://www.w3.org/1999/02/22-rdf-syntax-ns#"
   xmlns:svg="http://www.w3.org/2000/svg"
   xmlns="http://www.w3.org/2000/svg"
   xmlns:sodipodi="http://sodipodi.sourceforge.net/DTD/sodipodi-0.dtd"
   xmlns:inkscape="http://www.inkscape.org/namespaces/inkscape"
   version="1.1"
   id="svg10"
   width="200"
   height="218"
   viewBox="0 0 200 218"
   sodipodi:docname="R2.svg"
   inkscape:version="0.92.3 (2405546, 2018-03-11)">
  <metadata
     id="metadata16">
    <rdf:RDF>
      <cc:Work
         rdf:about="">
        <dc:format>image/svg+xml</dc:format>
        <dc:type
           rdf:resource="http://purl.org/dc/dcmitype/StillImage" />
        <dc:title></dc:title>
      </cc:Work>
    </rdf:RDF>
  </metadata>
  <defs
     id="defs14" />
  <sodipodi:namedview
     pagecolor="#ffffff"
     bordercolor="#666666"
     borderopacity="1"
     objecttolerance="10"
     gridtolerance="10"
     guidetolerance="10"
     inkscape:pageopacity="0"
     inkscape:pageshadow="2"
     inkscape:window-width="1366"
     inkscape:window-height="705"
     id="namedview12"
     showgrid="false"
     inkscape:zoom="2.4587156"
     inkscape:cx="100"
     inkscape:cy="109"
     inkscape:window-x="-8"
     inkscape:window-y="-8"
     inkscape:window-maximized="1"
     inkscape:current-layer="svg10" />
  <g
     id="g20"
     transform="scale(0.33298508,0.21828358)">
    <path
       style="fill:#fafafa"
       d="M 0,109 V 0 H 100 200 V 109 218 H 100 0 Z m 27.388605,91.75 C 35.289368,194.5625 54.971562,179.17127 71.126814,166.54727 121.41681,127.24979 129.15091,120.91489 141.33914,109.03735 163.13926,87.792946 171.1,73.73675 171.1,56.488931 171.1,38.829829 162.17124,25.724143 144.21404,17.025555 133.11557,11.649382 115.50335,8.4387979 91.775673,7.4664097 L 78.5,6.9223568 86.614874,9.7869672 c 15.083146,5.3244618 23.453366,11.6596138 28.348846,21.4563388 4.18039,8.365711 4.17791,15.152641 -0.009,23.530599 -5.06421,10.134374 -14.52296,18.382582 -78.754264,68.675165 L 12,142.39815 v 34.80092 C 12,196.33958 12.230306,212 12.511791,212 c 0.281484,0 6.976051,-5.0625 14.876814,-11.25 z m 153.961885,-6.5 c -25.3213,-28.52758 -26.14621,-29.4192 -26.90115,-29.07672 -0.39613,0.17969 -1.17783,-0.79828 -1.73711,-2.17328 -0.88939,-2.18659 -1.07279,-2.26429 -1.46294,-0.61983 -0.43069,1.81532 1.47394,3.90891 2.80674,3.0852 0.35833,-0.22146 1.19217,0.78396 1.85298,2.23428 1.08382,2.37873 1.04366,2.50596 -0.4102,1.29937 -0.88641,-0.73566 -1.53298,-0.92389 -1.43681,-0.41829 0.687,3.612 -2.97882,5.10611 -7.27254,2.96412 -1.58649,-0.79144 -3.0145,-0.98975 -3.33957,-0.46376 C 143.13753,171.58649 143.38508,172 144,172 c 0.61492,0 0.83992,0.45 0.5,1 -0.33992,0.55 0.15852,1 1.10765,1 2.70805,0 1,1.01811 -2.43801,1.45322 -2.00882,0.25423 -4.47097,1.83055 -6.98159,4.46976 C 134.05494,182.16534 131.43,184 130.35484,184 c -2.57589,0 -4.34639,1.85844 -3.60676,3.7859 0.43412,1.13129 0.21347,1.31412 -0.82814,0.68619 -1.21204,-0.73068 -1.219,-0.60828 -0.0475,0.83595 0.75485,0.93058 0.97985,1.74387 0.5,1.80731 -0.47984,0.0634 -1.35275,0.17594 -1.93979,0.25 -0.58704,0.0741 -1.82983,0.89529 -2.76175,1.82497 -0.93192,0.92968 -2.60113,1.5157 -3.70936,1.30227 -1.23045,-0.23696 -1.76113,0.0227 -1.36302,0.66682 0.42653,0.69014 -0.16929,0.82229 -1.72329,0.38222 -1.77356,-0.50226 -2.0026,-0.41651 -0.90419,0.33849 0.80907,0.55612 1.13907,1.3431 0.73333,1.74884 -0.8849,0.88491 -3.20437,-1.2352 -3.20437,-2.92896 0,-0.66 -0.46832,-1.2 -1.04072,-1.2 -0.5724,0 -2.47171,-1.575 -4.22069,-3.5 -1.74898,-1.925 -3.19315,-3.19464 -3.20928,-2.82143 -0.0161,0.37322 0.72213,1.43002 1.64057,2.34845 0.91843,0.91843 3.50593,4.01556 5.75,6.8825 2.24406,2.86694 6.10512,7.54741 8.58012,10.40106 l 4.5,5.18844 36.80276,4.9e-4 36.80276,4.9e-4 z m -28.75935,-24.82997 c -0.12754,-0.86898 -0.78162,-1.91972 -1.45351,-2.33497 -0.6719,-0.41526 -1.36689,-2.6707 -1.54442,-5.0121 -0.22594,-2.97969 -1.11352,-5.04782 -2.958,-6.8923 C 144.59224,153.1377 144,152.91492 144,154.18939 c 0,0.90417 0.53072,1.82085 1.17938,2.03707 0.69892,0.23297 1.22518,2.66912 1.29181,5.98002 0.0618,3.07279 0.71122,6.30838 1.44307,7.1902 1.73174,2.08663 4.98209,2.10285 4.67688,0.0233 z m -5.04843,-8.35093 c -0.31644,-0.512 -0.19299,-1.1672 0.27431,-1.45601 0.46731,-0.28881 0.84965,0.13009 0.84965,0.9309 0,1.68617 -0.31534,1.83349 -1.12396,0.52511 z M 132,169.10699 c 0,-0.49116 -0.73865,-1.17646 -1.64144,-1.52289 -1.37248,-0.52667 -1.43434,-0.38034 -0.37756,0.89301 1.44013,1.73524 2.019,1.91584 2.019,0.62988 z m 7.28909,-0.99608 c 2.26093,-2.26093 -0.0802,-2.71436 -2.78909,-0.5402 -2.86828,2.30206 -2.89346,2.38733 -0.57341,1.94195 1.33463,-0.25621 2.84775,-0.887 3.3625,-1.40175 z m 1.70618,-4.82323 c -1.08961,-1.69929 -1.11783,-1.69711 -0.57078,0.0441 0.31653,1.00748 0.61104,2.35748 0.65446,3 0.057,0.84316 0.21579,0.83088 0.57077,-0.0441 0.27051,-0.66678 -0.024,-2.01678 -0.65445,-3 z M 142,159.5 c 0,-0.825 -0.69274,-1.5 -1.53943,-1.5 -1.2719,0 -1.31534,0.25406 -0.25,1.46196 C 141.84975,161.32047 142,161.32367 142,159.5 Z M 80.419606,60.86992 c -0.350787,-0.567586 -1.763619,-0.74941 -3.139625,-0.404055 -1.376007,0.345356 -4.964783,0.07673 -7.975059,-0.596935 -5.434073,-1.216092 -5.454556,-1.234639 -2.863162,-2.592407 2.283263,-1.196323 2.428028,-1.549592 1.156185,-2.821435 -1.50974,-1.509741 -3.231624,-11.620757 -2.249586,-13.209727 0.307945,-0.498267 0.627622,-6.861347 0.710392,-14.140178 l 0.150491,-13.234238 2.615701,-0.994488 C 70.26358,12.329488 72.2415,12.091397 73.220323,12.347365 74.199145,12.603333 75,12.4743 75,12.060627 75,11.646953 71.5125,10.492425 67.25,9.4950101 61.318564,8.1070676 53.926981,7.5771623 35.75,7.2367633 L 12,6.7919988 V 34.419131 62.046263 l 34.528701,-0.07218 c 23.460247,-0.04905 34.32425,-0.402992 33.890905,-1.104159 z M 69.5,15 C 69.839919,14.45 69.641476,14 69.059017,14 68.476558,14 68,14.45 68,15 c 0,0.55 0.198442,1 0.440983,1 0.242541,0 0.719098,-0.45 1.059017,-1 z m 13,0 c 0.339919,-0.55 0.476005,-1 0.302415,-1 -0.17359,0 -1.783831,-0.421078 -3.578312,-0.935728 -2.025726,-0.580971 -3.04344,-0.580971 -2.684381,0 C 76.857794,13.578922 78.018034,14 79.118034,14 c 1.1,0 1.721885,0.45 1.381966,1 -0.339919,0.55 -0.168034,1 0.381966,1 0.55,0 1.278115,-0.45 1.618034,-1 z"
       id="path24"
       inkscape:connector-curvature="0" />
    <path
       style="fill:#565656"
       d="M 12,177.19907 V 142.39815 L 36.200856,123.44907 C 100.43216,73.156487 109.89091,64.908279 114.95512,54.773905 c 4.18651,-8.377958 4.18899,-15.164888 0.009,-23.530599 C 110.06824,21.446581 101.69802,15.111429 86.614874,9.7869672 L 78.5,6.9223568 91.775673,7.4664097 C 115.50335,8.4387979 133.11557,11.649382 144.21404,17.025555 162.17124,25.724143 171.1,38.829829 171.1,56.488931 c 0,17.247819 -7.96074,31.304015 -29.76086,52.548419 -12.18823,11.87754 -19.92233,18.21244 -70.212326,57.50992 C 54.971562,179.17127 35.289368,194.5625 27.388605,200.75 19.487842,206.9375 12.793275,212 12.511791,212 12.230306,212 12,196.33958 12,177.19907 Z m 107,29.61151 c -2.475,-2.85365 -6.33606,-7.53412 -8.58012,-10.40106 -2.24407,-2.86694 -4.83157,-5.96407 -5.75,-6.8825 -0.91844,-0.91843 -1.65669,-1.97523 -1.64057,-2.34845 0.0161,-0.37321 1.4603,0.89643 3.20928,2.82143 1.74898,1.925 3.64829,3.5 4.22069,3.5 0.5724,0 1.04072,0.54 1.04072,1.2 0,1.69376 2.31947,3.81387 3.20437,2.92896 0.40574,-0.40574 0.0757,-1.19272 -0.73333,-1.74884 -1.09841,-0.755 -0.86937,-0.84075 0.90419,-0.33849 1.554,0.44007 2.14982,0.30792 1.72329,-0.38222 -0.39811,-0.64416 0.13257,-0.90378 1.36302,-0.66682 1.10823,0.21343 2.77744,-0.37259 3.70936,-1.30227 0.93192,-0.92968 2.17471,-1.75091 2.76175,-1.82497 0.58704,-0.0741 1.45995,-0.18656 1.93979,-0.25 0.47985,-0.0634 0.25485,-0.87673 -0.5,-1.80731 -1.1715,-1.44423 -1.16454,-1.56663 0.0475,-0.83595 1.04161,0.62793 1.26226,0.4451 0.82814,-0.68619 -0.73963,-1.92746 1.03087,-3.7859 3.60676,-3.7859 1.07516,0 3.7001,-1.83466 5.83321,-4.07702 2.51062,-2.63921 4.97277,-4.21553 6.98159,-4.46976 3.43801,-0.43511 5.14606,-1.45322 2.43801,-1.45322 -0.94913,0 -1.44757,-0.45 -1.10765,-1 0.33992,-0.55 0.11492,-1 -0.5,-1 -0.61492,0 -0.86247,-0.41351 -0.55011,-0.91891 0.32507,-0.52599 1.75308,-0.32768 3.33957,0.46376 4.29372,2.14199 7.95954,0.64788 7.27254,-2.96412 -0.0962,-0.5056 0.5504,-0.31737 1.43681,0.41829 1.45386,1.20659 1.49402,1.07936 0.4102,-1.29937 -0.66081,-1.45032 -1.49465,-2.45574 -1.85298,-2.23428 -1.3328,0.82371 -3.23743,-1.26988 -2.80674,-3.0852 0.39015,-1.64446 0.57355,-1.56676 1.46294,0.61983 0.55928,1.375 1.34098,2.35297 1.73711,2.17328 0.75494,-0.34248 1.57985,0.54914 26.90115,29.07672 L 197.10552,212 160.30276,211.99951 123.5,211.99902 Z m 28.91426,-37.4139 c -0.73185,-0.88182 -1.38123,-4.11741 -1.44307,-7.1902 -0.0666,-3.3109 -0.59289,-5.74705 -1.29181,-5.98002 C 144.53072,156.01024 144,155.09356 144,154.18939 c 0,-1.27447 0.59224,-1.05169 2.63521,0.99127 1.84448,1.84448 2.73206,3.91261 2.958,6.8923 0.17753,2.3414 0.87252,4.59684 1.54442,5.0121 0.67189,0.41525 1.32597,1.46599 1.45351,2.33497 0.30521,2.0795 -2.94514,2.06328 -4.67688,-0.0233 z m 0.75241,-8.85269 c 0,-0.80081 -0.38234,-1.21971 -0.84965,-0.9309 -0.4673,0.28881 -0.59075,0.94401 -0.27431,1.45601 0.80862,1.30838 1.12396,1.16106 1.12396,-0.52511 z m -18.68567,7.93312 c -1.05678,-1.27335 -0.99492,-1.41968 0.37756,-0.89301 0.90279,0.34643 1.64144,1.03173 1.64144,1.52289 0,1.28596 -0.57887,1.10536 -2.019,-0.62988 z m 6.519,-0.9064 c 1.65,-1.32428 3.16312,-1.95506 3.3625,-1.40174 0.5137,1.42564 -1.10416,2.80007 -3.93591,3.34369 -2.32005,0.44538 -2.29487,0.36011 0.57341,-1.94195 z m 4.57895,-1.23892 c -0.0434,-0.64252 -0.33793,-1.99252 -0.65446,-3 -0.54705,-1.74122 -0.51883,-1.7434 0.57078,-0.0441 0.63045,0.98322 0.92496,2.33322 0.65445,3 -0.35498,0.87499 -0.51379,0.88727 -0.57077,0.0441 z m -0.86838,-6.86983 c -1.06534,-1.2079 -1.0219,-1.46196 0.25,-1.46196 0.84669,0 1.53943,0.675 1.53943,1.5 0,1.82367 -0.15025,1.82047 -1.78943,-0.038 z M 12,34.419131 V 6.7919988 l 23.75,0.4447645 c 18.176981,0.340399 25.568564,0.8703043 31.5,2.2582468 4.2625,0.9974149 7.75,2.1519429 7.75,2.5656169 0,0.413673 -0.800855,0.542706 -1.779677,0.286738 -0.978823,-0.255968 -2.956743,-0.01788 -4.39538,0.529092 l -2.615701,0.994488 -0.150491,13.234238 c -0.08277,7.278831 -0.402447,13.641911 -0.710392,14.140178 -0.982038,1.58897 0.739846,11.699986 2.249586,13.209727 1.271843,1.271843 1.127078,1.625112 -1.156185,2.821435 -2.591394,1.357768 -2.570911,1.376315 2.863162,2.592407 3.010276,0.67367 6.599052,0.942291 7.975059,0.596935 1.376006,-0.345355 2.788838,-0.163531 3.139625,0.404055 0.433345,0.701167 -10.430658,1.055114 -33.890905,1.104159 L 12,62.046263 Z M 68,15 c 0,-0.55 0.476558,-1 1.059017,-1 0.582459,0 0.780902,0.45 0.440983,1 -0.339919,0.55 -0.816476,1 -1.059017,1 C 68.198442,16 68,15.55 68,15 Z m 12.5,0 c 0.339919,-0.55 -0.281966,-1 -1.381966,-1 -1.1,0 -2.26024,-0.421078 -2.578312,-0.935728 -0.359059,-0.580971 0.658655,-0.580971 2.684381,0 C 81.018584,13.578922 82.628825,14 82.802415,14 c 0.17359,0 0.0375,0.45 -0.302415,1 -0.339919,0.55 -1.068034,1 -1.618034,1 -0.55,0 -0.721885,-0.45 -0.381966,-1 z"
       id="path22"
       inkscape:connector-curvature="0" />
  </g>
</svg>
